<svg x="0" y="0" width="2160" height="1080" viewBox="0 0 2160 1080" xmlns="http://www.w3.org/2000/svg" xmlns:xlink="http://www.w3.org/1999/xlink" xmlns:fi="http://pattern.flaticon.com/"><rect x="0px" y="0px" width="100%" height="100%" opacity="1" fill="#ffffff"/><defs><g transform="matrix(0.9375 0 0 0.9375 44 119)" id="L1_4"><path d="m47 27h-30a2.0059 2.0059 0 0 0 -2 2v23a2.0059 2.0059 0 0 0 2 2h30a2.0059 2.0059 0 0 0 2-2v-23a2.0059 2.0059 0 0 0 -2-2zm-13.14 21h-3.72l.85-6.29a1.0009 1.0009 0 0 0 -.59-1.05 4 4 0 1 1 3.2 0 1.0009 1.0009 0 0 0 -.59 1.05z" fill="#cdeef6"/><path d="m38 37a6 6 0 1 0 -9.08 5.14l-.91 6.73a1.001 1.001 0 0 0 .24.79.9806.9806 0 0 0 .75.34h6a.9806.9806 0 0 0 .75-.34 1.001 1.001 0 0 0 .24-.79l-.91-6.73a5.981 5.981 0 0 0 2.92-5.14zm-4.4 3.66a1.0009 1.0009 0 0 0 -.59 1.05l.85 6.29h-3.72l.85-6.29a1.0009 1.0009 0 0 0 -.59-1.05 4 4 0 1 1 3.2 0zm4.4-3.66a6 6 0 1 0 -9.08 5.14l-.91 6.73a1.001 1.001 0 0 0 .24.79.9806.9806 0 0 0 .75.34h6a.9806.9806 0 0 0 .75-.34 1.001 1.001 0 0 0 .24-.79l-.91-6.73a5.981 5.981 0 0 0 2.92-5.14zm-4.4 3.66a1.0009 1.0009 0 0 0 -.59 1.05l.85 6.29h-3.72l.85-6.29a1.0009 1.0009 0 0 0 -.59-1.05 4 4 0 1 1 3.2 0zm13.4-14.66h-26v-4a11 11 0 0 1 22 0 1 1 0 0 0 2 0 13 13 0 0 0 -26 0v4h-2a3.0088 3.0088 0 0 0 -3 3v23a3.0088 3.0088 0 0 0 3 3h30a3.0088 3.0088 0 0 0 3-3v-23a3.0088 3.0088 0 0 0 -3-3zm1 26a1.003 1.003 0 0 1 -1 1h-30a1.003 1.003 0 0 1 -1-1v-23a1.003 1.003 0 0 1 1-1h30a1.003 1.003 0 0 1 1 1zm-16-21a5.9942 5.9942 0 0 0 -3.08 11.14l-.91 6.73a1.001 1.001 0 0 0 .24.79.9806.9806 0 0 0 .75.34h6a.9806.9806 0 0 0 .75-.34 1.001 1.001 0 0 0 .24-.79l-.91-6.73a5.9942 5.9942 0 0 0 -3.08-11.14zm1.6 9.66a1.0009 1.0009 0 0 0 -.59 1.05l.85 6.29h-3.72l.85-6.29a1.0009 1.0009 0 0 0 -.59-1.05 4 4 0 1 1 3.2 0z" fill="#4f83d1"/></g><g transform="matrix(0.9375 0 0 0.9375 56 39)" id="L1_6"><path d="m32 9a15 15 0 1 0 15 15 15.0054 15.0054 0 0 0 -15-15zm0 18a1 1 0 1 1 1-1 1.003 1.003 0 0 1 -1 1zm3-7h-6v-2a3 3 0 0 1 6 0zm-16 29a2 2 0 1 1 -2-2 2 2 0 0 1 2 2zm10 0a2 2 0 1 1 -2-2 2 2 0 0 1 2 2zm10 0a2 2 0 1 1 -2-2 2 2 0 0 1 2 2zm10 0a2 2 0 1 1 -2-2 2 2 0 0 1 2 2z" fill="#cdeef6"/><path d="m47 46a3 3 0 1 0 3 3 3.0088 3.0088 0 0 0 -3-3zm0 4a1 1 0 1 1 1-1 1.003 1.003 0 0 1 -1 1zm-10-4a3 3 0 1 0 3 3 3.0088 3.0088 0 0 0 -3-3zm0 4a1 1 0 1 1 1-1 1.003 1.003 0 0 1 -1 1zm-10-4a3 3 0 1 0 3 3 3.0088 3.0088 0 0 0 -3-3zm0 4a1 1 0 1 1 1-1 1.003 1.003 0 0 1 -1 1zm-10-4a3 3 0 1 0 3 3 3.0088 3.0088 0 0 0 -3-3zm0 4a1 1 0 1 1 1-1 1.003 1.003 0 0 1 -1 1zm30-4a3 3 0 1 0 3 3 3.0088 3.0088 0 0 0 -3-3zm0 4a1 1 0 1 1 1-1 1.003 1.003 0 0 1 -1 1zm-10-4a3 3 0 1 0 3 3 3.0088 3.0088 0 0 0 -3-3zm0 4a1 1 0 1 1 1-1 1.003 1.003 0 0 1 -1 1zm-10-4a3 3 0 1 0 3 3 3.0088 3.0088 0 0 0 -3-3zm0 4a1 1 0 1 1 1-1 1.003 1.003 0 0 1 -1 1zm-10-4a3 3 0 1 0 3 3 3.0088 3.0088 0 0 0 -3-3zm0 4a1 1 0 1 1 1-1 1.003 1.003 0 0 1 -1 1zm0-4a3 3 0 1 0 3 3 3.0088 3.0088 0 0 0 -3-3zm0 4a1 1 0 1 1 1-1 1.003 1.003 0 0 1 -1 1zm10-4a3 3 0 1 0 3 3 3.0088 3.0088 0 0 0 -3-3zm0 4a1 1 0 1 1 1-1 1.003 1.003 0 0 1 -1 1zm10-4a3 3 0 1 0 3 3 3.0088 3.0088 0 0 0 -3-3zm0 4a1 1 0 1 1 1-1 1.003 1.003 0 0 1 -1 1zm10-4a3 3 0 1 0 3 3 3.0088 3.0088 0 0 0 -3-3zm0 4a1 1 0 1 1 1-1 1.003 1.003 0 0 1 -1 1zm0-4a3 3 0 1 0 3 3 3.0088 3.0088 0 0 0 -3-3zm0 4a1 1 0 1 1 1-1 1.003 1.003 0 0 1 -1 1zm-10-4a3 3 0 1 0 3 3 3.0088 3.0088 0 0 0 -3-3zm0 4a1 1 0 1 1 1-1 1.003 1.003 0 0 1 -1 1zm-10-4a3 3 0 1 0 3 3 3.0088 3.0088 0 0 0 -3-3zm0 4a1 1 0 1 1 1-1 1.003 1.003 0 0 1 -1 1zm-10-4a3 3 0 1 0 3 3 3.0088 3.0088 0 0 0 -3-3zm0 4a1 1 0 1 1 1-1 1.003 1.003 0 0 1 -1 1zm36-8h-42a3.0088 3.0088 0 0 0 -3 3v8a3.0088 3.0088 0 0 0 3 3h42a3.0088 3.0088 0 0 0 3-3v-8a3.0088 3.0088 0 0 0 -3-3zm1 11a1.003 1.003 0 0 1 -1 1h-42a1.003 1.003 0 0 1 -1-1v-8a1.003 1.003 0 0 1 1-1h42a1.003 1.003 0 0 1 1 1zm-7-7a3 3 0 1 0 3 3 3.0088 3.0088 0 0 0 -3-3zm0 4a1 1 0 1 1 1-1 1.003 1.003 0 0 1 -1 1zm-10-4a3 3 0 1 0 3 3 3.0088 3.0088 0 0 0 -3-3zm0 4a1 1 0 1 1 1-1 1.003 1.003 0 0 1 -1 1zm-10-4a3 3 0 1 0 3 3 3.0088 3.0088 0 0 0 -3-3zm0 4a1 1 0 1 1 1-1 1.003 1.003 0 0 1 -1 1zm-10-4a3 3 0 1 0 3 3 3.0088 3.0088 0 0 0 -3-3zm0 4a1 1 0 1 1 1-1 1.003 1.003 0 0 1 -1 1zm0-4a3 3 0 1 0 3 3 3.0088 3.0088 0 0 0 -3-3zm0 4a1 1 0 1 1 1-1 1.003 1.003 0 0 1 -1 1zm10-4a3 3 0 1 0 3 3 3.0088 3.0088 0 0 0 -3-3zm0 4a1 1 0 1 1 1-1 1.003 1.003 0 0 1 -1 1zm10-4a3 3 0 1 0 3 3 3.0088 3.0088 0 0 0 -3-3zm0 4a1 1 0 1 1 1-1 1.003 1.003 0 0 1 -1 1zm10-4a3 3 0 1 0 3 3 3.0088 3.0088 0 0 0 -3-3zm0 4a1 1 0 1 1 1-1 1.003 1.003 0 0 1 -1 1zm0-4a3 3 0 1 0 3 3 3.0088 3.0088 0 0 0 -3-3zm0 4a1 1 0 1 1 1-1 1.003 1.003 0 0 1 -1 1zm-10-4a3 3 0 1 0 3 3 3.0088 3.0088 0 0 0 -3-3zm0 4a1 1 0 1 1 1-1 1.003 1.003 0 0 1 -1 1zm-10-4a3 3 0 1 0 3 3 3.0088 3.0088 0 0 0 -3-3zm0 4a1 1 0 1 1 1-1 1.003 1.003 0 0 1 -1 1zm-10-4a3 3 0 1 0 3 3 3.0088 3.0088 0 0 0 -3-3zm0 4a1 1 0 1 1 1-1 1.003 1.003 0 0 1 -1 1zm15-27a2.9951 2.9951 0 0 0 -1 5.82v1.18a1 1 0 0 0 2 0v-1.18a2.9951 2.9951 0 0 0 -1-5.82zm0 4a1 1 0 1 1 1-1 1.003 1.003 0 0 1 -1 1zm0-4a2.9951 2.9951 0 0 0 -1 5.82v1.18a1 1 0 0 0 2 0v-1.18a2.9951 2.9951 0 0 0 -1-5.82zm0 4a1 1 0 1 1 1-1 1.003 1.003 0 0 1 -1 1zm7-7h-2v-2a5 5 0 0 0 -10 0v2h-2a1.003 1.003 0 0 0 -1 1v12a1.003 1.003 0 0 0 1 1h14a1.003 1.003 0 0 0 1-1v-12a1.003 1.003 0 0 0 -1-1zm-10-2a3 3 0 0 1 6 0v2h-6zm9 14h-12v-10h12zm-7-3.18v1.18a1 1 0 0 0 2 0v-1.18a3 3 0 1 0 -2 0zm1-3.82a1 1 0 1 1 -1 1 1.003 1.003 0 0 1 1-1zm0-2a2.9951 2.9951 0 0 0 -1 5.82v1.18a1 1 0 0 0 2 0v-1.18a2.9951 2.9951 0 0 0 -1-5.82zm0 4a1 1 0 1 1 1-1 1.003 1.003 0 0 1 -1 1zm0-4a2.9951 2.9951 0 0 0 -1 5.82v1.18a1 1 0 0 0 2 0v-1.18a2.9951 2.9951 0 0 0 -1-5.82zm0 4a1 1 0 1 1 1-1 1.003 1.003 0 0 1 -1 1zm0-4a2.9951 2.9951 0 0 0 -1 5.82v1.18a1 1 0 0 0 2 0v-1.18a2.9951 2.9951 0 0 0 -1-5.82zm0 4a1 1 0 1 1 1-1 1.003 1.003 0 0 1 -1 1zm0-4a2.9951 2.9951 0 0 0 -1 5.82v1.18a1 1 0 0 0 2 0v-1.18a2.9951 2.9951 0 0 0 -1-5.82zm0 4a1 1 0 1 1 1-1 1.003 1.003 0 0 1 -1 1zm7-7h-2v-2a5 5 0 0 0 -10 0v2h-2a1.003 1.003 0 0 0 -1 1v12a1.003 1.003 0 0 0 1 1h14a1.003 1.003 0 0 0 1-1v-12a1.003 1.003 0 0 0 -1-1zm-10-2a3 3 0 0 1 6 0v2h-6zm9 14h-12v-10h12zm-7-3.18v1.18a1 1 0 0 0 2 0v-1.18a3 3 0 1 0 -2 0zm1-3.82a1 1 0 1 1 -1 1 1.003 1.003 0 0 1 1-1zm7-5h-2v-2a5 5 0 0 0 -10 0v2h-2a1.003 1.003 0 0 0 -1 1v12a1.003 1.003 0 0 0 1 1h14a1.003 1.003 0 0 0 1-1v-12a1.003 1.003 0 0 0 -1-1zm-10-2a3 3 0 0 1 6 0v2h-6zm9 14h-12v-10h12zm-7-3.18v1.18a1 1 0 0 0 2 0v-1.18a3 3 0 1 0 -2 0zm1-3.82a1 1 0 1 1 -1 1 1.003 1.003 0 0 1 1-1zm0-17a16 16 0 1 0 16 16 16.0212 16.0212 0 0 0 -16-16zm0 30a14 14 0 1 1 14-14 14.0154 14.0154 0 0 1 -14 14zm7-18h-2v-2a5 5 0 0 0 -10 0v2h-2a1.003 1.003 0 0 0 -1 1v12a1.003 1.003 0 0 0 1 1h14a1.003 1.003 0 0 0 1-1v-12a1.003 1.003 0 0 0 -1-1zm-10-2a3 3 0 0 1 6 0v2h-6zm9 14h-12v-10h12zm-7-3.18v1.18a1 1 0 0 0 2 0v-1.18a3 3 0 1 0 -2 0zm1-3.82a1 1 0 1 1 -1 1 1.003 1.003 0 0 1 1-1zm0-2a2.9951 2.9951 0 0 0 -1 5.82v1.18a1 1 0 0 0 2 0v-1.18a2.9951 2.9951 0 0 0 -1-5.82zm0 4a1 1 0 1 1 1-1 1.003 1.003 0 0 1 -1 1zm0-4a2.9951 2.9951 0 0 0 -1 5.82v1.18a1 1 0 0 0 2 0v-1.18a2.9951 2.9951 0 0 0 -1-5.82zm0 4a1 1 0 1 1 1-1 1.003 1.003 0 0 1 -1 1zm7-7h-2v-2a5 5 0 0 0 -10 0v2h-2a1.003 1.003 0 0 0 -1 1v12a1.003 1.003 0 0 0 1 1h14a1.003 1.003 0 0 0 1-1v-12a1.003 1.003 0 0 0 -1-1zm-10-2a3 3 0 0 1 6 0v2h-6zm9 14h-12v-10h12zm-7-3.18v1.18a1 1 0 0 0 2 0v-1.18a3 3 0 1 0 -2 0zm1-3.82a1 1 0 1 1 -1 1 1.003 1.003 0 0 1 1-1zm0-2a2.9951 2.9951 0 0 0 -1 5.82v1.18a1 1 0 0 0 2 0v-1.18a2.9951 2.9951 0 0 0 -1-5.82zm0 4a1 1 0 1 1 1-1 1.003 1.003 0 0 1 -1 1zm0-4a2.9951 2.9951 0 0 0 -1 5.82v1.18a1 1 0 0 0 2 0v-1.18a2.9951 2.9951 0 0 0 -1-5.82zm0 4a1 1 0 1 1 1-1 1.003 1.003 0 0 1 -1 1zm7-7h-2v-2a5 5 0 0 0 -10 0v2h-2a1.003 1.003 0 0 0 -1 1v12a1.003 1.003 0 0 0 1 1h14a1.003 1.003 0 0 0 1-1v-12a1.003 1.003 0 0 0 -1-1zm-10-2a3 3 0 0 1 6 0v2h-6zm9 14h-12v-10h12zm-7-3.18v1.18a1 1 0 0 0 2 0v-1.18a3 3 0 1 0 -2 0zm1-3.82a1 1 0 1 1 -1 1 1.003 1.003 0 0 1 1-1zm0-2a2.9951 2.9951 0 0 0 -1 5.82v1.18a1 1 0 0 0 2 0v-1.18a2.9951 2.9951 0 0 0 -1-5.82zm0 4a1 1 0 1 1 1-1 1.003 1.003 0 0 1 -1 1zm0-4a2.9951 2.9951 0 0 0 -1 5.82v1.18a1 1 0 0 0 2 0v-1.18a2.9951 2.9951 0 0 0 -1-5.82zm0 4a1 1 0 1 1 1-1 1.003 1.003 0 0 1 -1 1zm0-4a2.9951 2.9951 0 0 0 -1 5.82v1.18a1 1 0 0 0 2 0v-1.18a2.9951 2.9951 0 0 0 -1-5.82zm0 4a1 1 0 1 1 1-1 1.003 1.003 0 0 1 -1 1zm0-4a2.9951 2.9951 0 0 0 -1 5.82v1.18a1 1 0 0 0 2 0v-1.18a2.9951 2.9951 0 0 0 -1-5.82zm0 4a1 1 0 1 1 1-1 1.003 1.003 0 0 1 -1 1zm0-4a2.9951 2.9951 0 0 0 -1 5.82v1.18a1 1 0 0 0 2 0v-1.18a2.9951 2.9951 0 0 0 -1-5.82zm0 4a1 1 0 1 1 1-1 1.003 1.003 0 0 1 -1 1zm7-7h-2v-2a5 5 0 0 0 -10 0v2h-2a1.003 1.003 0 0 0 -1 1v12a1.003 1.003 0 0 0 1 1h14a1.003 1.003 0 0 0 1-1v-12a1.003 1.003 0 0 0 -1-1zm-10-2a3 3 0 0 1 6 0v2h-6zm9 14h-12v-10h12zm-7-3.18v1.18a1 1 0 0 0 2 0v-1.18a3 3 0 1 0 -2 0zm1-3.82a1 1 0 1 1 -1 1 1.003 1.003 0 0 1 1-1zm0-2a2.9951 2.9951 0 0 0 -1 5.82v1.18a1 1 0 0 0 2 0v-1.18a2.9951 2.9951 0 0 0 -1-5.82zm0 4a1 1 0 1 1 1-1 1.003 1.003 0 0 1 -1 1zm0-4a2.9951 2.9951 0 0 0 -1 5.82v1.18a1 1 0 0 0 2 0v-1.18a2.9951 2.9951 0 0 0 -1-5.82zm0 4a1 1 0 1 1 1-1 1.003 1.003 0 0 1 -1 1zm0-4a2.9951 2.9951 0 0 0 -1 5.82v1.18a1 1 0 0 0 2 0v-1.18a2.9951 2.9951 0 0 0 -1-5.82zm0 4a1 1 0 1 1 1-1 1.003 1.003 0 0 1 -1 1z" fill="#4f83d1"/></g><g transform="matrix(0.9375 0 0 0.9375 185 286)" id="L1_7"><path d="m32 9a15 15 0 1 0 15 15 15.0054 15.0054 0 0 0 -15-15zm0 7a2 2 0 1 1 -2 2 2.0059 2.0059 0 0 1 2-2zm-5.92 15a6.0046 6.0046 0 0 1 11.84 0zm-7.08 18a2 2 0 1 1 -2-2 2 2 0 0 1 2 2zm10 0a2 2 0 1 1 -2-2 2 2 0 0 1 2 2zm10 0a2 2 0 1 1 -2-2 2 2 0 0 1 2 2zm10 0a2 2 0 1 1 -2-2 2 2 0 0 1 2 2z" fill="#cdeef6"/><path d="m32 14a4 4 0 1 0 4 4 3.9989 3.9989 0 0 0 -4-4zm0 6a2 2 0 1 1 2-2 2.0059 2.0059 0 0 1 -2 2zm0 4a8.0106 8.0106 0 0 0 -8 8 1.003 1.003 0 0 0 1 1h14a1.003 1.003 0 0 0 1-1 8.0106 8.0106 0 0 0 -8-8zm-5.92 7a6.0046 6.0046 0 0 1 11.84 0zm5.92-17a4 4 0 1 0 4 4 3.9989 3.9989 0 0 0 -4-4zm0 6a2 2 0 1 1 2-2 2.0059 2.0059 0 0 1 -2 2zm0 4a8.0106 8.0106 0 0 0 -8 8 1.003 1.003 0 0 0 1 1h14a1.003 1.003 0 0 0 1-1 8.0106 8.0106 0 0 0 -8-8zm-5.92 7a6.0046 6.0046 0 0 1 11.84 0zm5.92-7a8.0106 8.0106 0 0 0 -8 8 1.003 1.003 0 0 0 1 1h14a1.003 1.003 0 0 0 1-1 8.0106 8.0106 0 0 0 -8-8zm-5.92 7a6.0046 6.0046 0 0 1 11.84 0zm5.92-9a4 4 0 1 0 -4-4 3.9989 3.9989 0 0 0 4 4zm0-6a2 2 0 1 1 -2 2 2.0059 2.0059 0 0 1 2-2zm0-8a16 16 0 1 0 16 16 16.0212 16.0212 0 0 0 -16-16zm0 30a14 14 0 1 1 14-14 14.0154 14.0154 0 0 1 -14 14zm0-14a8.0106 8.0106 0 0 0 -8 8 1.003 1.003 0 0 0 1 1h14a1.003 1.003 0 0 0 1-1 8.0106 8.0106 0 0 0 -8-8zm-5.92 7a6.0046 6.0046 0 0 1 11.84 0zm5.92-9a4 4 0 1 0 -4-4 3.9989 3.9989 0 0 0 4 4zm0-6a2 2 0 1 1 -2 2 2.0059 2.0059 0 0 1 2-2zm0-2a4 4 0 1 0 4 4 3.9989 3.9989 0 0 0 -4-4zm0 6a2 2 0 1 1 2-2 2.0059 2.0059 0 0 1 -2 2zm0 4a8.0106 8.0106 0 0 0 -8 8 1.003 1.003 0 0 0 1 1h14a1.003 1.003 0 0 0 1-1 8.0106 8.0106 0 0 0 -8-8zm-5.92 7a6.0046 6.0046 0 0 1 11.84 0zm-9.08 15a3 3 0 1 0 3 3 3.0088 3.0088 0 0 0 -3-3zm0 4a1 1 0 1 1 1-1 1.003 1.003 0 0 1 -1 1zm10-4a3 3 0 1 0 3 3 3.0088 3.0088 0 0 0 -3-3zm0 4a1 1 0 1 1 1-1 1.003 1.003 0 0 1 -1 1zm10-4a3 3 0 1 0 3 3 3.0088 3.0088 0 0 0 -3-3zm0 4a1 1 0 1 1 1-1 1.003 1.003 0 0 1 -1 1zm10-4a3 3 0 1 0 3 3 3.0088 3.0088 0 0 0 -3-3zm0 4a1 1 0 1 1 1-1 1.003 1.003 0 0 1 -1 1zm0-4a3 3 0 1 0 3 3 3.0088 3.0088 0 0 0 -3-3zm0 4a1 1 0 1 1 1-1 1.003 1.003 0 0 1 -1 1zm-10-4a3 3 0 1 0 3 3 3.0088 3.0088 0 0 0 -3-3zm0 4a1 1 0 1 1 1-1 1.003 1.003 0 0 1 -1 1zm-10-4a3 3 0 1 0 3 3 3.0088 3.0088 0 0 0 -3-3zm0 4a1 1 0 1 1 1-1 1.003 1.003 0 0 1 -1 1zm-10-4a3 3 0 1 0 3 3 3.0088 3.0088 0 0 0 -3-3zm0 4a1 1 0 1 1 1-1 1.003 1.003 0 0 1 -1 1zm36-8h-42a3.0088 3.0088 0 0 0 -3 3v8a3.0088 3.0088 0 0 0 3 3h42a3.0088 3.0088 0 0 0 3-3v-8a3.0088 3.0088 0 0 0 -3-3zm1 11a1.003 1.003 0 0 1 -1 1h-42a1.003 1.003 0 0 1 -1-1v-8a1.003 1.003 0 0 1 1-1h42a1.003 1.003 0 0 1 1 1zm-7-7a3 3 0 1 0 3 3 3.0088 3.0088 0 0 0 -3-3zm0 4a1 1 0 1 1 1-1 1.003 1.003 0 0 1 -1 1zm-10-4a3 3 0 1 0 3 3 3.0088 3.0088 0 0 0 -3-3zm0 4a1 1 0 1 1 1-1 1.003 1.003 0 0 1 -1 1zm-10-4a3 3 0 1 0 3 3 3.0088 3.0088 0 0 0 -3-3zm0 4a1 1 0 1 1 1-1 1.003 1.003 0 0 1 -1 1zm-10-4a3 3 0 1 0 3 3 3.0088 3.0088 0 0 0 -3-3zm0 4a1 1 0 1 1 1-1 1.003 1.003 0 0 1 -1 1zm0-4a3 3 0 1 0 3 3 3.0088 3.0088 0 0 0 -3-3zm0 4a1 1 0 1 1 1-1 1.003 1.003 0 0 1 -1 1zm10-4a3 3 0 1 0 3 3 3.0088 3.0088 0 0 0 -3-3zm0 4a1 1 0 1 1 1-1 1.003 1.003 0 0 1 -1 1zm10-4a3 3 0 1 0 3 3 3.0088 3.0088 0 0 0 -3-3zm0 4a1 1 0 1 1 1-1 1.003 1.003 0 0 1 -1 1zm10-4a3 3 0 1 0 3 3 3.0088 3.0088 0 0 0 -3-3zm0 4a1 1 0 1 1 1-1 1.003 1.003 0 0 1 -1 1zm-30-4a3 3 0 1 0 3 3 3.0088 3.0088 0 0 0 -3-3zm0 4a1 1 0 1 1 1-1 1.003 1.003 0 0 1 -1 1zm10-4a3 3 0 1 0 3 3 3.0088 3.0088 0 0 0 -3-3zm0 4a1 1 0 1 1 1-1 1.003 1.003 0 0 1 -1 1zm10-4a3 3 0 1 0 3 3 3.0088 3.0088 0 0 0 -3-3zm0 4a1 1 0 1 1 1-1 1.003 1.003 0 0 1 -1 1zm10-4a3 3 0 1 0 3 3 3.0088 3.0088 0 0 0 -3-3zm0 4a1 1 0 1 1 1-1 1.003 1.003 0 0 1 -1 1z" fill="#4f83d1"/></g><g transform="matrix(0.1171875 0 0 0.1171875 65 281)" id="L1_8"><path d="M96,117.333h362.667c29.455,0,53.333,23.878,53.333,53.333V384c0,29.455-23.878,53.333-53.333,53.333  H96c-29.455,0-53.333-23.878-53.333-53.333V170.667C42.667,141.211,66.545,117.333,96,117.333z" fill="#90a4ae"/><g><path d="M53.333,74.667H416c29.455,0,53.333,23.878,53.333,53.333v213.333   c0,29.455-23.878,53.333-53.333,53.333H53.333C23.878,394.667,0,370.789,0,341.333V128C0,98.545,23.878,74.667,53.333,74.667z" fill="#cfd8dc"/><circle cx="160" cy="234" r="106" fill="#cfd8dc"/></g><g><path d="M160,352c-64.801,0-117.333-52.532-117.333-117.333S95.199,117.333,160,117.333   s117.333,52.532,117.333,117.333C277.263,299.439,224.772,351.929,160,352z M160,138.667c-53.019,0-96,42.981-96,96   s42.981,96,96,96s96-42.981,96-96S213.019,138.667,160,138.667z" fill="#2196f3"/><circle cx="160" cy="213" r="42" fill="#2196f3"/><path d="M160,341.333c28.264,0.032,55.377-11.191,75.349-31.189c-14-41.62-59.089-64.011-100.71-50.01   c-23.575,7.93-42.08,26.436-50.01,50.01C104.607,330.147,131.729,341.371,160,341.333z" fill="#2196f3"/></g><g><path d="M416,181.333H309.333c-5.891,0-10.667-4.776-10.667-10.667S303.442,160,309.333,160H416   c5.891,0,10.667,4.776,10.667,10.667S421.891,181.333,416,181.333z" fill="#90a4ae"/><path d="M416,245.333H309.333c-5.891,0-10.667-4.776-10.667-10.667S303.442,224,309.333,224H416   c5.891,0,10.667,4.776,10.667,10.667S421.891,245.333,416,245.333z" fill="#90a4ae"/><path d="M416,309.333H309.333c-5.891,0-10.667-4.776-10.667-10.667c0-5.891,4.776-10.667,10.667-10.667H416   c5.891,0,10.667,4.776,10.667,10.667C426.667,304.558,421.891,309.333,416,309.333z" fill="#90a4ae"/></g></g><g transform="matrix(0.12228252738714218 0 0 0.12228252738714218 315 243.00001525878906)" id="L1_9"><path d="M490.667,53.333v53.333H0V53.333C0,23.878,23.878,0,53.333,0h384  C466.789,0,490.667,23.878,490.667,53.333z" fill="#455a64"/><path d="M490.667,106.667v330.667c0,29.455-23.878,53.333-53.333,53.333h-384  C23.878,490.667,0,466.789,0,437.333V106.667H490.667z" fill="#cfd8dc"/><path d="M117.333,384H224c5.891,0,10.667,4.776,10.667,10.667v42.667c0,5.891-4.776,10.667-10.667,10.667  H117.333c-5.891,0-10.667-4.776-10.667-10.667v-42.667C106.667,388.776,111.442,384,117.333,384z" fill="#546e7a"/><path d="M266.667,384h106.667c5.891,0,10.667,4.776,10.667,10.667v42.667c0,5.891-4.776,10.667-10.667,10.667  H266.667c-5.891,0-10.667-4.776-10.667-10.667v-42.667C256,388.776,260.776,384,266.667,384z" fill="#4caf50"/><circle cx="53" cy="53" r="10" fill="#f44336"/><circle cx="96" cy="53" r="10" fill="#ffc107"/><circle cx="138" cy="53" r="10" fill="#4caf50"/><circle cx="245" cy="245" r="106" fill="#fafafa"/><g><path d="M245.333,362.667C180.532,362.667,128,310.135,128,245.333S180.532,128,245.333,128   s117.333,52.532,117.333,117.333C362.584,310.101,310.101,362.584,245.333,362.667z M245.333,149.333c-53.019,0-96,42.981-96,96   s42.981,96,96,96s96-42.981,96-96S298.353,149.333,245.333,149.333z" fill="#2196f3"/><circle cx="245" cy="224" r="42" fill="#2196f3"/><path d="M245.333,352c28.264,0.032,55.377-11.191,75.349-31.189c-14-41.62-59.089-64.011-100.71-50.01   c-23.575,7.93-42.08,26.436-50.01,50.01C189.941,340.814,217.062,352.037,245.333,352z" fill="#2196f3"/></g></g><g transform="matrix(0.11718729883432388 0 0 0.11718729883432388 175 163)" id="L1_10"><g fill="#42a5f5"><path d="m256 170.667969c-11.796875 0-21.332031-9.558594-21.332031-21.335938v-128c0-11.773437 9.535156-21.332031 21.332031-21.332031s21.332031 9.558594 21.332031 21.332031v128c0 11.777344-9.535156 21.335938-21.332031 21.335938zm0 0"/><path d="m200.597656 138.667969c-7.382812 0-14.550781-3.820313-18.496094-10.667969-5.886718-10.195312-2.390624-23.253906 7.808594-29.140625l110.828125-64c10.152344-5.910156 23.25-2.410156 29.160157 7.808594 5.890624 10.195312 2.390624 23.253906-7.808594 29.140625l-110.824219 64c-3.371094 1.941406-7.042969 2.859375-10.667969 2.859375zm0 0"/><path d="m311.402344 138.667969c-3.625 0-7.296875-.917969-10.644532-2.859375l-110.828124-64c-10.21875-5.886719-13.714844-18.945313-7.828126-29.140625 5.886719-10.21875 18.964844-13.71875 29.140626-7.808594l110.828124 64c10.21875 5.886719 13.71875 18.945313 7.808594 29.140625-3.949218 6.847656-11.117187 10.667969-18.476562 10.667969zm0 0"/><path d="m142.847656 98.859375-23.421875-13.527344 23.421875-13.523437c10.199219-5.886719 13.695313-18.945313 7.808594-29.140625-5.910156-10.21875-18.988281-13.71875-29.140625-7.808594l-23.425781 13.523437v-27.050781c0-11.773437-9.535156-21.332031-21.332032-21.332031-11.796874 0-21.332031 9.558594-21.332031 21.332031v27.050781l-23.425781-13.523437c-10.195312-5.910156-23.230469-2.410156-29.140625 7.808594-5.886719 10.195312-2.390625 23.253906 7.808594 29.140625l23.421875 13.523437-23.421875 13.527344c-10.199219 5.886719-13.695313 18.945313-7.808594 29.140625 3.96875 6.847656 11.113281 10.667969 18.496094 10.667969 3.625 0 7.296875-.917969 10.644531-2.859375l23.425781-13.527344v27.050781c0 11.777344 9.535157 21.335938 21.332031 21.335938 11.796876 0 21.332032-9.558594 21.332032-21.335938v-27.050781l23.425781 13.527344c3.347656 1.941406 7.019531 2.859375 10.644531 2.859375 7.382813 0 14.550782-3.820313 18.496094-10.667969 5.886719-10.195312 2.390625-23.253906-7.808594-29.140625zm0 0"/><path d="m501.332031 98.859375-23.421875-13.527344 23.421875-13.523437c10.199219-5.886719 13.699219-18.945313 7.808594-29.140625-5.90625-10.21875-18.984375-13.71875-29.140625-7.808594l-23.421875 13.523437v-27.050781c0-11.773437-9.539063-21.332031-21.335937-21.332031-11.796876 0-21.332032 9.558594-21.332032 21.332031v27.050781l-23.425781-13.523437c-10.175781-5.910156-23.25-2.410156-29.140625 7.808594-5.886719 10.195312-2.386719 23.253906 7.808594 29.140625l23.425781 13.523437-23.425781 13.527344c-10.21875 5.886719-13.71875 18.945313-7.808594 29.140625 3.96875 6.847656 11.117188 10.667969 18.496094 10.667969 3.628906 0 7.296875-.917969 10.644531-2.859375l23.425781-13.527344v27.050781c0 11.777344 9.535156 21.335938 21.332032 21.335938 11.796874 0 21.335937-9.558594 21.335937-21.335938v-27.050781l23.421875 13.527344c3.351562 1.941406 7.019531 2.859375 10.644531 2.859375 7.382813 0 14.550781-3.820313 18.496094-10.667969 5.890625-10.195312 2.390625-23.253906-7.808594-29.140625zm0 0"/></g><path d="m128 256h-106.667969c-11.796875 0-21.332031-9.558594-21.332031-21.332031 0-11.777344 9.535156-21.335938 21.332031-21.335938h106.667969c11.796875 0 21.332031 9.558594 21.332031 21.335938 0 11.773437-9.535156 21.332031-21.332031 21.332031zm0 0" fill="#607d8b"/><path d="m309.332031 256h-106.664062c-11.796875 0-21.335938-9.558594-21.335938-21.332031 0-11.777344 9.539063-21.335938 21.335938-21.335938h106.664062c11.800781 0 21.335938 9.558594 21.335938 21.335938 0 11.773437-9.535157 21.332031-21.335938 21.332031zm0 0" fill="#607d8b"/><path d="m490.667969 256h-106.667969c-11.796875 0-21.332031-9.558594-21.332031-21.332031 0-11.777344 9.535156-21.335938 21.332031-21.335938h106.667969c11.796875 0 21.332031 9.558594 21.332031 21.335938 0 11.773437-9.535156 21.332031-21.332031 21.332031zm0 0" fill="#607d8b"/></g><g transform="matrix(0.1171875 0 0 0.1171875 50 211)" id="L1_11"><path d="M504,144v248c0,8.8-7.2,16-16,16H128h-24c-8.8,0-16-7.2-16-16V120c0-2.48,0.56-4.8,1.6-6.88L296,264  l206.4-150.88c1.04,2.08,1.6,4.4,1.6,6.88V144z" fill="#fdb51e"/><path d="M502.4,113.12L296,264L89.6,113.12c2.56-5.36,8.08-9.12,14.4-9.12h384  C494.32,104,499.84,107.76,502.4,113.12z" fill="#ffd311"/><path d="M488,96H104c-13.232,0-24,10.768-24,24v176h16V127.752l132.272,96.664l-65.928,65.928l11.312,11.312l67.688-67.688  l49.936,36.496c1.408,1.024,3.064,1.536,4.72,1.536s3.312-0.512,4.72-1.536l49.936-36.496l67.688,67.688l11.312-11.312  l-65.928-65.928L496,127.752V392c0,4.408-3.592,8-8,8H0v16h488c13.232,0,24-10.768,24-24V120C512,106.768,501.232,96,488,96z   M296,254.088L102.088,112.384C102.72,112.224,103.32,112,104,112h384c0.68,0,1.28,0.224,1.912,0.384L296,254.088z"/><rect x="80px" y="360px" width="16px" height="16px"/><rect x="0px" y="360px" width="64px" height="16px"/><rect x="32px" y="320px" width="64px" height="16px"/><rect x="0px" y="320px" width="16px" height="16px"/></g><g transform="matrix(0.12228252738714218 0 0 0.12228252738714218 221 13.999998092651367)" id="L1_12"><path d="M480.427,32.642L301.014,162.348l-29.44,21.333c-15.596,11.522-36.884,11.522-52.48,0l-29.44-21.333  L10.027,32.855c9.991-13.972,26.13-22.241,43.307-22.187h384C454.385,10.683,470.401,18.85,480.427,32.642z" fill="#ffd54f"/><g><path d="M10.027,32.855l179.627,129.493l-174.08,174.08C5.578,326.407-0.025,312.823,0,298.668V64.002   C-0.047,52.818,3.464,41.91,10.027,32.855z" fill="#ffc107"/><path d="M490.667,64.002v234.667c0.025,14.155-5.577,27.739-15.573,37.76l-174.08-174.08L480.427,32.642   C487.088,41.74,490.674,52.725,490.667,64.002z" fill="#ffc107"/></g><path d="M320,394.668c-14.165,0-21.333-10.667-21.333-32c0.349-29.807-23.531-54.252-53.338-54.601  c-29.807-0.349-54.252,23.531-54.601,53.338c-0.349,29.807,23.531,54.252,53.338,54.601c15.975,0.187,31.212-6.713,41.609-18.842  c7.083,12.138,20.282,19.381,34.325,18.837c42.667,0,42.667-40.149,42.667-53.333c0.001-64.801-52.53-117.334-117.331-117.336  S128.002,297.862,128,362.664c-0.001,64.801,52.53,117.334,117.331,117.336c30.445,0.001,59.699-11.833,81.581-33  c4.236-4.124,4.326-10.9,0.203-15.136c-4.124-4.236-10.9-4.326-15.136-0.203l0,0c-38.161,36.807-98.935,35.709-135.742-2.452  s-35.709-98.935,2.452-135.742c38.161-36.807,98.935-35.709,135.742,2.452c17.284,17.92,26.93,41.854,26.903,66.75  C341.334,386.583,335.958,394.668,320,394.668z M245.334,394.668c-17.673,0-32-14.327-32-32s14.327-32,32-32s32,14.327,32,32  S263.007,394.668,245.334,394.668z" fill="#455a64"/><path d="M301.014,162.348l-29.44,21.333c-15.596,11.522-36.884,11.522-52.48,0l-29.44-21.333l-174.08,174.08  c10.021,9.996,23.605,15.599,37.76,15.573H107.2c5.771-76.283,72.288-133.445,148.572-127.674  c68.259,5.164,122.51,59.415,127.674,127.674h53.888c14.155,0.025,27.739-5.577,37.76-15.573L301.014,162.348z" fill="#ffa000"/></g><g transform="matrix(0.11718658357858658 0 0 0.11718658357858658 316 -6)" id="L1_14"><path d="M353.906,149.494c-5.781-1.045-11.306,2.773-12.394,8.533l-1.515,8.362  c-26.366-16.767-58.64-21.524-88.718-13.055c-43.858,11.412-78.415,45.18-90.766,88.782c-8.853,28.67-3.562,59.856,14.249,84.004  c16.276,22.825,42.556,36.434,70.586,36.52c34.237-0.96,65.403-19.945,81.977-49.916c17.044,32.744,51.836,52.326,88.675,49.916  c54.929-5.034,96.739-51.494,95.992-106.658c0-141.364-114.614-255.979-255.979-255.979S0.037,114.617,0.037,255.981  s114.614,255.979,255.979,255.979c57.83,0.235,114.017-19.348,159.176-55.462c4.757-3.477,5.781-10.154,2.304-14.911  c-3.477-4.757-10.154-5.781-14.911-2.304c-0.235,0.171-0.448,0.341-0.661,0.533c-41.426,33.107-92.899,51.025-145.908,50.812  c-129.589,0-234.647-105.058-234.647-234.647S126.427,21.334,256.016,21.334s234.647,105.058,234.647,234.647  c0.619,43.346-31.613,80.185-74.66,85.326c-34.45,0-74.66-16.767-74.831-62.096l21.332-117.324  C363.548,156.085,359.687,150.539,353.906,149.494z M245.35,341.307c-21.204-0.128-41.042-10.452-53.329-27.731  c-13.802-18.665-17.94-42.77-11.135-64.976c9.919-36.669,38.823-65.125,75.642-74.447c26.686-8.042,55.611-2.453,77.391,14.932  c0.576,0.448,1.173,0.853,1.835,1.173l-15.188,84.174c0,0.213-0.213,0.363-0.256,0.576  C313.035,311.421,282.382,338.534,245.35,341.307z" fill="#4caf50"/><path d="M256.506,512.002c-9.834,0-19.753-0.555-29.672-1.707c-67.941-7.786-128.757-41.554-171.271-95.117  C13.028,361.636-6.085,294.74,1.701,226.821S43.276,98.063,96.818,55.55c110.519-87.758,271.849-69.285,359.65,41.255  c35.816,45.074,55.526,101.602,55.526,159.176c0.704,54.929-40.082,100.834-94.861,106.594c-0.064,0-0.128,0-0.171,0  c-48.849,0-96.952-26.387-96.952-85.262l21.502-119.222c1.067-5.824,6.677-9.685,12.415-8.575c5.781,1.045,9.621,6.613,8.575,12.394  l-21.332,117.324c0.171,45.308,40.402,62.075,74.831,62.075c42.642-4.565,75.215-41.213,74.66-85.198  c0-52.902-18.089-104.738-50.897-146.057c-38.973-49.084-94.733-80.036-157-87.182c-62.203-7.125-123.616,10.41-172.679,49.383  c-49.084,38.973-80.036,94.733-87.182,157c-7.146,62.267,10.388,123.574,49.361,172.679c38.973,49.084,94.733,80.036,157,87.182  c62.309,7.103,123.574-10.388,172.679-49.361c4.608-3.648,11.306-2.922,14.975,1.728c3.669,4.608,2.901,11.306-1.728,14.975  C369.478,492.761,314.038,512.002,256.506,512.002z"/><path d="M245.99,362.617c-51.942-1.941-91.768-44.903-89.827-95.8c0.32-8.405,1.771-16.745,4.373-24.766  c14.356-45.436,47.441-77.775,90.744-88.675c37.01-9.343,75.279-1.365,97.485,20.308c4.224,4.096,4.309,10.858,0.213,15.081  c-4.138,4.245-10.9,4.309-15.081,0.192c-16.788-16.34-47.868-22.313-77.412-14.889c-21.14,5.312-59.088,22.057-75.62,74.447  c-2.005,6.229-3.114,12.628-3.37,19.113c-1.515,39.122,29.118,72.186,68.261,73.679c36.221-2.24,67.258-29.416,74.447-66.043  c1.109-5.781,6.677-9.557,12.522-8.426c5.781,1.131,9.535,6.741,8.405,12.522C332.084,325.543,292.962,359.759,245.99,362.617z"/></g><g transform="matrix(0.1171875 0 0 0.1171875 297 113)" id="L1_15"><path d="M495.841,426.519l-14.331-77.627c-0.595-3.224-3.094-5.76-6.309-6.404l-112.704-22.541  c-2.627-0.525-5.343,0.298-7.238,2.192l-49.629,49.629c-83.92-36.532-128.96-81.617-168.915-169.07l49.553-49.552  c1.895-1.894,2.717-4.611,2.192-7.238L165.919,33.206c-0.643-3.214-3.179-5.714-6.404-6.309L81.888,12.567  c-1.07-0.197-2.17-0.175-3.23,0.066C59.62,16.959,42.249,26.554,28.421,40.381C4.51,64.292-4.572,99.542,2.158,142.32  c11.795,74.981,48.45,179.247,115.962,247.028l0.463,0.475c0.122,0.122,0.245,0.241,0.369,0.36l0.119,0.114  c67.768,67.501,172.034,104.156,247.015,115.951c9.167,1.442,17.982,2.158,26.42,2.158c30.939,0,56.732-9.634,75.52-28.422  c13.828-13.827,23.423-31.199,27.75-50.237C496.015,428.688,496.038,427.589,495.841,426.519z" fill="#ffd791"/><path d="M136.715,202.699L78.658,12.633C59.62,16.959,42.249,26.554,28.421,40.381  C4.51,64.292-4.572,99.542,2.158,142.32c11.795,74.981,48.45,179.247,115.962,247.028l0.463,0.475  c0.122,0.122,0.245,0.241,0.369,0.36l0.119,0.114c67.768,67.501,172.034,104.156,247.015,115.951  c9.167,1.442,17.982,2.158,26.42,2.158c30.939,0,56.732-9.634,75.52-28.422c13.828-13.827,23.423-31.199,27.75-50.237  l-190.144-57.98C221.711,335.237,176.67,290.152,136.715,202.699z" fill="#ffc44f"/><path d="M408.732,491.356c-8.438,0-17.253-0.715-26.42-2.158c-74.981-11.796-179.247-48.451-247.015-115.951  l-0.119-0.114c-0.123-0.119-0.247-0.237-0.369-0.36l-0.463-0.475C66.833,304.516,30.179,200.249,18.384,125.268  c-5.805-36.901,0.166-68.193,17.262-91.445c-2.498,2.068-4.915,4.248-7.224,6.558C4.51,64.292-4.572,99.542,2.158,142.32  c11.795,74.981,48.45,179.247,115.962,247.028l0.463,0.475c0.122,0.122,0.245,0.241,0.369,0.36l0.119,0.114  c67.768,67.501,172.034,104.156,247.015,115.951c9.167,1.442,17.982,2.158,26.42,2.158c30.939,0,56.732-9.634,75.52-28.422  c3.48-3.48,6.69-7.185,9.617-11.084C459.589,483.747,436.194,491.356,408.732,491.356z" fill="#ffb357"/><path d="M367.758,3.594c-79.535,0-144.242,53.922-144.242,120.201c0,35.814,18.535,68.94,51.116,91.831  l-26.338,57.066c-1.368,2.964-0.763,6.56,1.501,8.912c2.491,2.589,6.523,3.198,9.667,1.451l75.812-42.118  c10.606,2.03,21.518,3.059,32.484,3.059c79.535,0,144.242-53.922,144.242-120.201S447.294,3.594,367.758,3.594z" fill="#b0db51"/><path d="M273.835,273.608c-2.263-2.352-2.868-5.948-1.5-8.912l26.338-57.066  c-32.581-22.892-51.116-56.017-51.116-91.831c0-46.756,32.204-87.359,79.097-107.225C267.082,23.36,223.517,69.414,223.517,123.796  c0,35.814,18.535,68.94,51.116,91.831l-26.338,57.066c-1.368,2.964-0.763,6.56,1.501,8.911c2.491,2.589,6.523,3.198,9.667,1.451  l15.4-8.555C274.498,274.235,274.153,273.939,273.835,273.608z" fill="#9cc445"/><g><path d="M383.785,99.756h-32.054c-4.425,0-8.013,3.588-8.013,8.013v88.148c0,4.425,3.588,8.013,8.013,8.013   h32.054c4.425,0,8.013-3.588,8.013-8.013v-88.148C391.799,103.343,388.212,99.756,383.785,99.756z" fill="#f3f1f1"/><path d="M367.758,43.662c-13.256,0-24.04,10.784-24.04,24.04s10.784,24.04,24.04,24.04   s24.04-10.784,24.04-24.04S381.015,43.662,367.758,43.662z" fill="#f3f1f1"/></g></g><g transform="matrix(1.25 0 0 1.25 252 163)" id="L1_21"><circle cx="24" cy="24" r="21" fill="#47caf0"/><circle cx="24" cy="24" r="21" fill="#47caf0"/><path d="m27.927 27.683c-.592.414-.915 1.117-.845 1.835l1.41 14.27c.024.24.099.461.198.668 6.09-1.391 11.165-5.422 13.962-10.834l-12.714-6.103c-.648-.311-1.421-.249-2.012.164z" fill="#20aee1"/><path d="m28 41c-11.598 0-21-9.402-21-21 0-4.778 1.614-9.169 4.302-12.698-5.037 3.836-8.302 9.878-8.302 16.698 0 11.598 9.402 21 21 21 6.82 0 12.862-3.265 16.698-8.302-3.529 2.688-7.92 4.302-12.698 4.302z" fill="#20aee1"/><path d="m24 3c-6.563 0-12.419 3.014-16.27 7.73 3.618-2.954 8.235-4.73 13.27-4.73 11.598 0 21 9.402 21 21 0 5.035-1.776 9.653-4.73 13.27 4.716-3.851 7.73-9.707 7.73-16.27 0-11.598-9.402-21-21-21z" fill="#6ee7ff"/><path d="m44.433 32.625-12.927-6.206c-.703-.337-1.505.224-1.428 1l1.41 14.27c.085.861 1.149 1.215 1.733.577l2.638-2.881 3.059 4.369c.634.905 1.881 1.125 2.785.491l1.638-1.147c.905-.634 1.125-1.881.491-2.785l-3.059-4.369 3.61-1.493c.799-.331.83-1.451.051-1.826z" fill="#eff3f9"/><g fill="#08105e"><path d="m28.987 43.695c-.016-.141-.056-.281-.135-.41-.291-.47-.907-.617-1.376-.327-.805.496-1.634.809-2.476.95v-9.909h1.61c.553 0 1-.448 1-1s-.447-1-1-1h-1.61v-7h2.35c.553 0 1-.448 1-1s-.447-1-1-1h-2.35v-7h9.075c.591 2.452.925 5.155.925 8 0 .552.447 1 1 1h7.949c-.052 1.029-.157 2.052-.367 3.043-.114.54.231 1.071.771 1.186.54.116 1.071-.231 1.186-.771.307-1.448.462-2.948.462-4.457 0-12.131-9.869-22-22-22s-22.001 9.869-22.001 22 9.869 22 22 22c1.589 0 3.152-.169 4.648-.504.538-.121.878-.655.757-1.194-.058-.26-.214-.469-.418-.607zm-5.987.213c-3.639-.6-6.764-4.436-8.512-9.908h8.512zm0-11.908h-9.075c-.521-2.161-.829-4.523-.897-7h9.972zm-18.949-7h6.978c.063 2.471.352 4.823.841 7h-6.188c-.948-2.161-1.508-4.523-1.631-7zm1.631-9h6.188c-.489 2.177-.778 4.529-.841 7h-6.978c.123-2.477.683-4.839 1.631-7zm17.318 7h-9.972c.068-2.477.376-4.839.897-7h9.075zm0-18.908v9.908h-8.512c1.747-5.472 4.873-9.308 8.512-9.908zm2 9.908v-9.908c3.639.6 6.764 4.436 8.512 9.908zm11.131 2h6.188c.948 2.161 1.508 4.523 1.631 7h-6.962c-.062-2.474-.367-4.82-.857-7zm5.163-2h-5.682c-1.073-3.633-2.716-6.657-4.749-8.761 4.415 1.621 8.099 4.745 10.431 8.761zm-24.146-8.765c-2.038 2.105-3.687 5.127-4.761 8.765h-5.681c2.334-4.02 6.023-7.146 10.442-8.765zm-10.442 28.765h5.681c1.075 3.638 2.723 6.661 4.761 8.765-4.42-1.619-8.108-4.745-10.442-8.765z"/><path d="m44.865 31.724-12.927-6.206c-.648-.311-1.421-.249-2.012.164-.592.414-.915 1.117-.845 1.835l1.41 14.27c.078.796.599 1.448 1.358 1.701.761.253 1.566.042 2.106-.547l1.796-1.962 2.345 3.347c.459.657 1.146 1.095 1.937 1.234.176.031.352.046.526.046.61 0 1.205-.186 1.715-.543l1.639-1.147c1.354-.949 1.686-2.823.737-4.178l-2.345-3.348 2.457-1.016c.74-.306 1.214-.993 1.235-1.793.022-.8-.412-1.512-1.134-1.858zm-4.475 3.295c-.28.116-.493.353-.578.644-.085.292-.033.605.141.854l3.06 4.369c.316.452.206 1.077-.245 1.393l-1.639 1.147c-.219.153-.485.214-.748.166-.263-.046-.491-.192-.645-.411l-3.06-4.369c-.174-.249-.451-.404-.754-.424-.022-.001-.044-.002-.065-.002-.279 0-.548.117-.737.325l-2.638 2.881-1.41-14.271 12.928 6.206-3.609 1.493z"/></g></g><g transform="matrix(1.25 0 0 1.25 136 78)" id="L1_22"><circle cx="24" cy="24" r="21" fill="#47caf0"/><circle cx="24" cy="24" r="21" fill="#47caf0"/><path d="m27.927 27.683c-.592.414-.915 1.117-.845 1.835l1.41 14.27c.024.24.099.461.198.668 6.09-1.391 11.165-5.422 13.962-10.834l-12.714-6.103c-.648-.311-1.421-.249-2.012.164z" fill="#20aee1"/><path d="m28 41c-11.598 0-21-9.402-21-21 0-4.778 1.614-9.169 4.302-12.698-5.037 3.836-8.302 9.878-8.302 16.698 0 11.598 9.402 21 21 21 6.82 0 12.862-3.265 16.698-8.302-3.529 2.688-7.92 4.302-12.698 4.302z" fill="#20aee1"/><path d="m24 3c-6.563 0-12.419 3.014-16.27 7.73 3.618-2.954 8.235-4.73 13.27-4.73 11.598 0 21 9.402 21 21 0 5.035-1.776 9.653-4.73 13.27 4.716-3.851 7.73-9.707 7.73-16.27 0-11.598-9.402-21-21-21z" fill="#6ee7ff"/><path d="m44.433 32.625-12.927-6.206c-.703-.337-1.505.224-1.428 1l1.41 14.27c.085.861 1.149 1.215 1.733.577l2.638-2.881 3.059 4.369c.634.905 1.881 1.125 2.785.491l1.638-1.147c.905-.634 1.125-1.881.491-2.785l-3.059-4.369 3.61-1.493c.799-.331.83-1.451.051-1.826z" fill="#eff3f9"/><g fill="#08105e"><path d="m28.987 43.695c-.016-.141-.056-.281-.135-.41-.291-.47-.907-.617-1.376-.327-.805.496-1.634.809-2.476.95v-9.909h1.61c.553 0 1-.448 1-1s-.447-1-1-1h-1.61v-7h2.35c.553 0 1-.448 1-1s-.447-1-1-1h-2.35v-7h9.075c.591 2.452.925 5.155.925 8 0 .552.447 1 1 1h7.949c-.052 1.029-.157 2.052-.367 3.043-.114.54.231 1.071.771 1.186.54.116 1.071-.231 1.186-.771.307-1.448.462-2.948.462-4.457 0-12.131-9.869-22-22-22s-22.001 9.869-22.001 22 9.869 22 22 22c1.589 0 3.152-.169 4.648-.504.538-.121.878-.655.757-1.194-.058-.26-.214-.469-.418-.607zm-5.987.213c-3.639-.6-6.764-4.436-8.512-9.908h8.512zm0-11.908h-9.075c-.521-2.161-.829-4.523-.897-7h9.972zm-18.949-7h6.978c.063 2.471.352 4.823.841 7h-6.188c-.948-2.161-1.508-4.523-1.631-7zm1.631-9h6.188c-.489 2.177-.778 4.529-.841 7h-6.978c.123-2.477.683-4.839 1.631-7zm17.318 7h-9.972c.068-2.477.376-4.839.897-7h9.075zm0-18.908v9.908h-8.512c1.747-5.472 4.873-9.308 8.512-9.908zm2 9.908v-9.908c3.639.6 6.764 4.436 8.512 9.908zm11.131 2h6.188c.948 2.161 1.508 4.523 1.631 7h-6.962c-.062-2.474-.367-4.82-.857-7zm5.163-2h-5.682c-1.073-3.633-2.716-6.657-4.749-8.761 4.415 1.621 8.099 4.745 10.431 8.761zm-24.146-8.765c-2.038 2.105-3.687 5.127-4.761 8.765h-5.681c2.334-4.02 6.023-7.146 10.442-8.765zm-10.442 28.765h5.681c1.075 3.638 2.723 6.661 4.761 8.765-4.42-1.619-8.108-4.745-10.442-8.765z"/><path d="m44.865 31.724-12.927-6.206c-.648-.311-1.421-.249-2.012.164-.592.414-.915 1.117-.845 1.835l1.41 14.27c.078.796.599 1.448 1.358 1.701.761.253 1.566.042 2.106-.547l1.796-1.962 2.345 3.347c.459.657 1.146 1.095 1.937 1.234.176.031.352.046.526.046.61 0 1.205-.186 1.715-.543l1.639-1.147c1.354-.949 1.686-2.823.737-4.178l-2.345-3.348 2.457-1.016c.74-.306 1.214-.993 1.235-1.793.022-.8-.412-1.512-1.134-1.858zm-4.475 3.295c-.28.116-.493.353-.578.644-.085.292-.033.605.141.854l3.06 4.369c.316.452.206 1.077-.245 1.393l-1.639 1.147c-.219.153-.485.214-.748.166-.263-.046-.491-.192-.645-.411l-3.06-4.369c-.174-.249-.451-.404-.754-.424-.022-.001-.044-.002-.065-.002-.279 0-.548.117-.737.325l-2.638 2.881-1.41-14.271 12.928 6.206-3.609 1.493z"/></g></g><path d="m22.001 6h-2v-2h2zm-8-2h-2v2h2zm4 0h-2v2h2zm40 11v14c0 1.654-1.346 3-3 3h-40c-1.654 0-3-1.346-3-3v-14c0-1.654 1.346-3 3-3h40c1.654 0 3 1.346 3 3zm-2 0c0-.551-.449-1-1-1h-40c-.551 0-1 .449-1 1v14c0 .551.449 1 1 1h40c.551 0 1-.449 1-1zm-31.777 9.505-.958-2.873c-.325-.976-1.236-1.632-2.265-1.632s-1.939.656-2.265 1.632l-.958 2.873-.781-8.596-1.992.181 1.083 11.91h2.634l1.912-5.735c.105-.317.63-.317.735 0l1.911 5.735h2.634l1.083-11.91-1.992-.181zm14 0-.958-2.873c-.325-.976-1.236-1.632-2.265-1.632s-1.939.656-2.265 1.632l-.958 2.873-.781-8.596-1.992.181 1.083 11.91h2.634l1.912-5.735c.105-.317.63-.317.735 0l1.911 5.735h2.634l1.083-11.91-1.992-.181zm14 0-.958-2.873c-.325-.976-1.236-1.632-2.265-1.632s-1.939.656-2.265 1.632l-.958 2.873-.781-8.596-1.992.181 1.083 11.91h2.634l1.912-5.735c.105-.317.63-.317.735 0l1.911 5.735h2.634l1.083-11.91-1.992-.181zm9.777-21.505v40c0 1.654-1.346 3-3 3h-31.05c.025.331.051.662.051 1 0 2.005-.469 3.897-1.283 5.595 3.108 4.453 4.016 7.415 2.654 8.776-.42.42-.979.631-1.683.631-1.354 0-3.245-.78-5.71-2.349-.452-.287-.917-.602-1.391-.932-1.696.811-3.586 1.279-5.588 1.279-7.168 0-13-5.832-13-13 0-2.002.468-3.892 1.28-5.587-.33-.473-.645-.939-.932-1.391-2.384-3.747-2.946-6.166-1.718-7.393 1.214-1.215 3.694-.631 7.371 1.709v-31.338c0-1.654 1.346-3 3-3h48c1.653 0 2.999 1.346 2.999 3zm-52 0v5h50v-5c0-.551-.449-1-1-1h-48c-.551 0-1 .449-1 1zm2.54 49c-.429-.412-.857-.829-1.284-1.256-.911-.911-1.79-1.83-2.627-2.744h-4.578c.13 1.43.537 2.779 1.164 4zm-3.109-10h-3.24c.822 1.076 1.771 2.234 2.851 3.461.06-1.221.193-2.381.389-3.461zm1.59 4h7.958c-.052-1.447-.217-2.791-.46-4h-7.038c-.243 1.209-.408 2.553-.46 4zm4.444 6h3.051c.251-1.253.406-2.605.457-4h-7.601c.42.438.848.879 1.299 1.33.961.961 1.892 1.846 2.794 2.67zm2.284 2c1.057.889 2.061 1.683 2.989 2.367 1.037-.638 1.968-1.433 2.741-2.367zm8.201-6h-4.977c-.047 1.381-.184 2.732-.415 4h4.229c.625-1.221 1.033-2.57 1.163-4zm0-2c-.13-1.43-.537-2.779-1.164-4h-4.217c.225 1.237.364 2.581.409 4zm-2.471-6c-1.246-1.507-2.891-2.666-4.764-3.341.553.919 1.023 2.046 1.391 3.341zm-8.479-4c-1.075 0-2.22 1.527-3.009 4h6.018c-.789-2.473-1.934-4-3.009-4zm-3.714.659c-1.874.675-3.518 1.834-4.764 3.341h3.374c.367-1.295.837-2.422 1.39-3.341zm-6.886 2.841c.852-1.201 1.901-2.25 3.103-3.102-3.734-2.48-5.251-2.506-5.461-2.353-.355.483.379 2.477 2.358 5.455zm.259 3.788c-.31.861-.523 1.767-.608 2.712h2.812c-.788-.921-1.525-1.827-2.204-2.712zm6.621 14.051c-.543-.908-1.011-2.029-1.381-3.339h-3.377c1.245 1.505 2.887 2.663 4.758 3.339zm7.433.002c-1.3-.998-2.646-2.12-4.011-3.341h-2.707c.779 2.406 1.94 4 3.005 4 1.304 0 2.551-.24 3.713-.659zm6.889-2.844c-.852 1.201-1.901 2.25-3.102 3.103 2.978 1.978 4.973 2.712 5.459 2.355.151-.207.122-1.725-2.357-5.458zm8.398-14.497h-2v4h2zm8-2h-2v6h2zm8-2h-2v8h2zm10 7v-33h-50v25.003c1.54-.644 3.229-1.003 5-1.003 6.134 0 11.277 4.276 12.637 10h2.363v-6h6v6h2v-8h6v8h2v-10h6v10h7c.551 0 1-.449 1-1z" transform="matrix(0.9677263498306274 0 0 0.9677263498306274 174 217)" fill="#000000" id="L1_23"/><g transform="matrix(0.9375 0 0 0.9375 138 9)" id="L1_25"><path d="m46 28a11 11 0 1 0 11 11 10.9938 10.9938 0 0 0 -11-11zm5.46 11-4.46 3.83v-7.66z" fill="#cdeef6"/><path d="m53.65 38.24-7-6a1.0169 1.0169 0 0 0 -1.07-.15 1.0055 1.0055 0 0 0 -.58.91v5h-6a1 1 0 0 0 0 2h6v5a.9886.9886 0 0 0 .58.91 1.0019 1.0019 0 0 0 1.07-.15l7-6a1 1 0 0 0 0-1.52zm-6.65 4.59v-7.66l4.46 3.83zm-29-29.83a7 7 0 1 0 7 7 7.0077 7.0077 0 0 0 -7-7zm0 12a5 5 0 1 1 5-5 5.0018 5.0018 0 0 1 -5 5zm0 4a12.01 12.01 0 0 0 -12 12v9a1.003 1.003 0 0 0 1 1h22a1.003 1.003 0 0 0 1-1v-9a12.01 12.01 0 0 0 -12-12zm10 20h-20v-8a10 10 0 0 1 20 0zm25.65-10.76-7-6a1.0169 1.0169 0 0 0 -1.07-.15 1.0055 1.0055 0 0 0 -.58.91v5h-6a1 1 0 0 0 0 2h6v5a.9886.9886 0 0 0 .58.91 1.0019 1.0019 0 0 0 1.07-.15l7-6a1 1 0 0 0 0-1.52zm-6.65 4.59v-7.66l4.46 3.83zm-1-15.83a12 12 0 1 0 12 12 12.01 12.01 0 0 0 -12-12zm0 22a10 10 0 1 1 10-10 10.0165 10.0165 0 0 1 -10 10zm7.65-10.76-7-6a1.0169 1.0169 0 0 0 -1.07-.15 1.0055 1.0055 0 0 0 -.58.91v5h-6a1 1 0 0 0 0 2h6v5a.9886.9886 0 0 0 .58.91 1.0019 1.0019 0 0 0 1.07-.15l7-6a1 1 0 0 0 0-1.52zm-6.65 4.59v-7.66l4.46 3.83z" fill="#4f83d1"/></g></defs><g fi:class="KUsePattern"><pattern id="pattern_L1_4" width="350" height="350" patternUnits="userSpaceOnUse"><use xlink:href="#L1_4" x="-350" y="-350"/><use xlink:href="#L1_4" x="0" y="-350"/><use xlink:href="#L1_4" x="350" y="-350"/><use xlink:href="#L1_4" x="-350" y="0"/><use xlink:href="#L1_4" x="0" y="0"/><use xlink:href="#L1_4" x="350" y="0"/><use xlink:href="#L1_4" x="-350" y="350"/><use xlink:href="#L1_4" x="0" y="350"/><use xlink:href="#L1_4" x="350" y="350"/></pattern><rect x="0" y="0" width="100%" height="100%" fill="url(#pattern_L1_4)"/></g><g fi:class="KUsePattern"><pattern id="pattern_L1_6" width="350" height="350" patternUnits="userSpaceOnUse"><use xlink:href="#L1_6" x="-350" y="-350"/><use xlink:href="#L1_6" x="0" y="-350"/><use xlink:href="#L1_6" x="350" y="-350"/><use xlink:href="#L1_6" x="-350" y="0"/><use xlink:href="#L1_6" x="0" y="0"/><use xlink:href="#L1_6" x="350" y="0"/><use xlink:href="#L1_6" x="-350" y="350"/><use xlink:href="#L1_6" x="0" y="350"/><use xlink:href="#L1_6" x="350" y="350"/></pattern><rect x="0" y="0" width="100%" height="100%" fill="url(#pattern_L1_6)"/></g><g fi:class="KUsePattern"><pattern id="pattern_L1_7" width="350" height="350" patternUnits="userSpaceOnUse"><use xlink:href="#L1_7" x="-350" y="-350"/><use xlink:href="#L1_7" x="0" y="-350"/><use xlink:href="#L1_7" x="350" y="-350"/><use xlink:href="#L1_7" x="-350" y="0"/><use xlink:href="#L1_7" x="0" y="0"/><use xlink:href="#L1_7" x="350" y="0"/><use xlink:href="#L1_7" x="-350" y="350"/><use xlink:href="#L1_7" x="0" y="350"/><use xlink:href="#L1_7" x="350" y="350"/></pattern><rect x="0" y="0" width="100%" height="100%" fill="url(#pattern_L1_7)"/></g><g fi:class="KUsePattern" opacity="0.64"><pattern id="pattern_L1_8" width="350" height="350" patternUnits="userSpaceOnUse"><use xlink:href="#L1_8" x="-350" y="-350"/><use xlink:href="#L1_8" x="0" y="-350"/><use xlink:href="#L1_8" x="350" y="-350"/><use xlink:href="#L1_8" x="-350" y="0"/><use xlink:href="#L1_8" x="0" y="0"/><use xlink:href="#L1_8" x="350" y="0"/><use xlink:href="#L1_8" x="-350" y="350"/><use xlink:href="#L1_8" x="0" y="350"/><use xlink:href="#L1_8" x="350" y="350"/></pattern><rect x="0" y="0" width="100%" height="100%" fill="url(#pattern_L1_8)"/></g><g fi:class="KUsePattern" opacity="0.58"><pattern id="pattern_L1_9" width="350" height="350" patternUnits="userSpaceOnUse"><use xlink:href="#L1_9" x="-350" y="-350"/><use xlink:href="#L1_9" x="0" y="-350"/><use xlink:href="#L1_9" x="350" y="-350"/><use xlink:href="#L1_9" x="-350" y="0"/><use xlink:href="#L1_9" x="0" y="0"/><use xlink:href="#L1_9" x="350" y="0"/><use xlink:href="#L1_9" x="-350" y="350"/><use xlink:href="#L1_9" x="0" y="350"/><use xlink:href="#L1_9" x="350" y="350"/></pattern><rect x="0" y="0" width="100%" height="100%" fill="url(#pattern_L1_9)"/></g><g fi:class="KUsePattern"><pattern id="pattern_L1_10" width="350" height="350" patternUnits="userSpaceOnUse"><use xlink:href="#L1_10" x="-350" y="-350"/><use xlink:href="#L1_10" x="0" y="-350"/><use xlink:href="#L1_10" x="350" y="-350"/><use xlink:href="#L1_10" x="-350" y="0"/><use xlink:href="#L1_10" x="0" y="0"/><use xlink:href="#L1_10" x="350" y="0"/><use xlink:href="#L1_10" x="-350" y="350"/><use xlink:href="#L1_10" x="0" y="350"/><use xlink:href="#L1_10" x="350" y="350"/></pattern><rect x="0" y="0" width="100%" height="100%" fill="url(#pattern_L1_10)"/></g><g fi:class="KUsePattern" opacity="0.51"><pattern id="pattern_L1_11" width="350" height="350" patternUnits="userSpaceOnUse"><use xlink:href="#L1_11" x="-350" y="-350"/><use xlink:href="#L1_11" x="0" y="-350"/><use xlink:href="#L1_11" x="350" y="-350"/><use xlink:href="#L1_11" x="-350" y="0"/><use xlink:href="#L1_11" x="0" y="0"/><use xlink:href="#L1_11" x="350" y="0"/><use xlink:href="#L1_11" x="-350" y="350"/><use xlink:href="#L1_11" x="0" y="350"/><use xlink:href="#L1_11" x="350" y="350"/></pattern><rect x="0" y="0" width="100%" height="100%" fill="url(#pattern_L1_11)"/></g><g fi:class="KUsePattern" opacity="0.62"><pattern id="pattern_L1_12" width="350" height="350" patternUnits="userSpaceOnUse"><use xlink:href="#L1_12" x="-350" y="-350"/><use xlink:href="#L1_12" x="0" y="-350"/><use xlink:href="#L1_12" x="350" y="-350"/><use xlink:href="#L1_12" x="-350" y="0"/><use xlink:href="#L1_12" x="0" y="0"/><use xlink:href="#L1_12" x="350" y="0"/><use xlink:href="#L1_12" x="-350" y="350"/><use xlink:href="#L1_12" x="0" y="350"/><use xlink:href="#L1_12" x="350" y="350"/></pattern><rect x="0" y="0" width="100%" height="100%" fill="url(#pattern_L1_12)"/></g><g fi:class="KUsePattern" opacity="0.37"><pattern id="pattern_L1_14" width="350" height="350" patternUnits="userSpaceOnUse"><use xlink:href="#L1_14" x="-350" y="-350"/><use xlink:href="#L1_14" x="0" y="-350"/><use xlink:href="#L1_14" x="350" y="-350"/><use xlink:href="#L1_14" x="-350" y="0"/><use xlink:href="#L1_14" x="0" y="0"/><use xlink:href="#L1_14" x="350" y="0"/><use xlink:href="#L1_14" x="-350" y="350"/><use xlink:href="#L1_14" x="0" y="350"/><use xlink:href="#L1_14" x="350" y="350"/></pattern><rect x="0" y="0" width="100%" height="100%" fill="url(#pattern_L1_14)"/></g><g fi:class="KUsePattern" opacity="0.62"><pattern id="pattern_L1_15" width="350" height="350" patternUnits="userSpaceOnUse"><use xlink:href="#L1_15" x="-350" y="-350"/><use xlink:href="#L1_15" x="0" y="-350"/><use xlink:href="#L1_15" x="350" y="-350"/><use xlink:href="#L1_15" x="-350" y="0"/><use xlink:href="#L1_15" x="0" y="0"/><use xlink:href="#L1_15" x="350" y="0"/><use xlink:href="#L1_15" x="-350" y="350"/><use xlink:href="#L1_15" x="0" y="350"/><use xlink:href="#L1_15" x="350" y="350"/></pattern><rect x="0" y="0" width="100%" height="100%" fill="url(#pattern_L1_15)"/></g><g fi:class="KUsePattern" opacity="0.45"><pattern id="pattern_L1_21" width="350" height="350" patternUnits="userSpaceOnUse"><use xlink:href="#L1_21" x="-350" y="-350"/><use xlink:href="#L1_21" x="0" y="-350"/><use xlink:href="#L1_21" x="350" y="-350"/><use xlink:href="#L1_21" x="-350" y="0"/><use xlink:href="#L1_21" x="0" y="0"/><use xlink:href="#L1_21" x="350" y="0"/><use xlink:href="#L1_21" x="-350" y="350"/><use xlink:href="#L1_21" x="0" y="350"/><use xlink:href="#L1_21" x="350" y="350"/></pattern><rect x="0" y="0" width="100%" height="100%" fill="url(#pattern_L1_21)"/></g><g fi:class="KUsePattern" opacity="0.49"><pattern id="pattern_L1_22" width="350" height="350" patternUnits="userSpaceOnUse"><use xlink:href="#L1_22" x="-350" y="-350"/><use xlink:href="#L1_22" x="0" y="-350"/><use xlink:href="#L1_22" x="350" y="-350"/><use xlink:href="#L1_22" x="-350" y="0"/><use xlink:href="#L1_22" x="0" y="0"/><use xlink:href="#L1_22" x="350" y="0"/><use xlink:href="#L1_22" x="-350" y="350"/><use xlink:href="#L1_22" x="0" y="350"/><use xlink:href="#L1_22" x="350" y="350"/></pattern><rect x="0" y="0" width="100%" height="100%" fill="url(#pattern_L1_22)"/></g><g fi:class="KUsePattern" opacity="0.54"><pattern id="pattern_L1_23" width="350" height="350" patternUnits="userSpaceOnUse"><use xlink:href="#L1_23" x="-350" y="-350"/><use xlink:href="#L1_23" x="0" y="-350"/><use xlink:href="#L1_23" x="350" y="-350"/><use xlink:href="#L1_23" x="-350" y="0"/><use xlink:href="#L1_23" x="0" y="0"/><use xlink:href="#L1_23" x="350" y="0"/><use xlink:href="#L1_23" x="-350" y="350"/><use xlink:href="#L1_23" x="0" y="350"/><use xlink:href="#L1_23" x="350" y="350"/></pattern><rect x="0" y="0" width="100%" height="100%" fill="url(#pattern_L1_23)"/></g><g fi:class="KUsePattern"><pattern id="pattern_L1_25" width="350" height="350" patternUnits="userSpaceOnUse"><use xlink:href="#L1_25" x="-350" y="-350"/><use xlink:href="#L1_25" x="0" y="-350"/><use xlink:href="#L1_25" x="350" y="-350"/><use xlink:href="#L1_25" x="-350" y="0"/><use xlink:href="#L1_25" x="0" y="0"/><use xlink:href="#L1_25" x="350" y="0"/><use xlink:href="#L1_25" x="-350" y="350"/><use xlink:href="#L1_25" x="0" y="350"/><use xlink:href="#L1_25" x="350" y="350"/></pattern><rect x="0" y="0" width="100%" height="100%" fill="url(#pattern_L1_25)"/></g></svg>